<svg id="Group_2587" data-name="Group 2587" xmlns="http://www.w3.org/2000/svg" width="167.991" height="175.749" viewBox="0 0 167.991 175.749">
  <path id="Path_1" data-name="Path 1" d="M357.855,284.5h-1.716a4.719,4.719,0,0,0-.514-.4q-11.947-6.895-23.9-13.774c-1.567-.9-3.193-1.7-2.793-4.183a75.268,75.268,0,0,1-55.425-.007c.433,2.511-1.236,3.29-2.791,4.19Q258.5,277.4,246.3,284.5h-1.717c-8.29-4.811-16.558-9.661-24.889-14.4a4.3,4.3,0,0,1-2.453-4.255c.078-8.863.094-17.727-.009-26.59a4.565,4.565,0,0,1,2.684-4.639c4.365-2.351,8.609-4.926,13-7.463a75.115,75.115,0,0,1-.007-61.06c-4.476-2.582-8.839-5.175-13.283-7.621a4.145,4.145,0,0,1-2.377-4.126c.068-8.805.106-17.613-.021-26.418a4.992,4.992,0,0,1,2.9-5.044c8.209-4.612,16.314-9.407,24.457-14.133H246.3q12.132,7.055,24.268,14.1c1.595.924,3.369,1.666,2.9,4.3a75.15,75.15,0,0,1,55.442-.046c-.356-2.46,1.216-3.324,2.815-4.176.655-.349,1.293-.731,1.935-1.1q11.243-6.539,22.485-13.081h1.716c2.4,1.417,4.819,2.815,7.208,4.256,1.6.967,2.05,2.4,1.24,3.738-.769,1.269-2.2,1.574-3.743.729-1.453-.795-2.9-1.6-4.294-2.5a2.045,2.045,0,0,0-2.467-.031c-5.959,3.5-11.959,6.935-17.941,10.4-.358.207-.677.482-1.132.809,6.633,3.834,13.1,7.6,19.609,11.277a2.242,2.242,0,0,0,1.809-.229c4.576-2.584,9.115-5.234,13.664-7.865,1.814-1.049,3.625-2.1,5.6-3.25-.819-.483-1.455-.859-2.091-1.231-.691-.4-1.4-.784-2.072-1.209-1.513-.951-1.968-2.3-1.248-3.612.744-1.357,2.235-1.685,3.859-.774,2.391,1.342,4.721,2.8,7.142,4.08a3.73,3.73,0,0,1,2.154,3.72q-.06,13.811.03,27.622a3.665,3.665,0,0,1-2.064,3.6c-4.043,2.25-8.028,4.6-12.032,6.922-.525.3-1.029.643-1.542.966a75.1,75.1,0,0,1-.019,61c4.479,2.583,8.841,5.175,13.284,7.622a4.151,4.151,0,0,1,2.386,4.123c-.067,8.864-.092,17.729.014,26.592a4.762,4.762,0,0,1-2.757,4.776C374.2,274.931,366.046,279.745,357.855,284.5Zm-92-46.827c-1.68-.97-3.125-1.775-4.539-2.631-1.633-.989-2.085-2.367-1.279-3.73.784-1.325,2.248-1.614,3.884-.691,2.489,1.4,4.914,2.923,7.439,4.258a3.825,3.825,0,0,1,2.21,3.861c-.07,6.75,0,13.5-.051,20.252a1.914,1.914,0,0,0,1.382,2.159,69.774,69.774,0,0,0,52.354.121,2.207,2.207,0,0,0,1.657-2.5c-.067-6.75,0-13.5-.05-20.251a3.558,3.558,0,0,1,1.952-3.486q12.209-6.969,24.355-14.049a3.258,3.258,0,0,1,3.683,0c1.983,1.214,4.023,2.337,6.222,3.6,7.733-18.72,7.737-37.21,0-55.91-2.056,1.18-3.973,2.182-5.785,3.35a3.95,3.95,0,0,1-4.609-.033q-11.76-6.889-23.614-13.616a3.916,3.916,0,0,1-2.209-3.866c.067-6.75-.009-13.5.058-20.252a2.021,2.021,0,0,0-1.547-2.23,69.757,69.757,0,0,0-52.511.092,1.82,1.82,0,0,0-1.335,2.021c.046,6.807-.023,13.615.054,20.423a3.908,3.908,0,0,1-2.247,3.841q-11.925,6.775-23.76,13.708a3.725,3.725,0,0,1-4.293-.026c-1.877-1.163-3.823-2.215-5.919-3.419-7.729,18.723-7.73,37.212.006,55.913,2.209-1.269,4.253-2.39,6.241-3.6a3.2,3.2,0,0,1,3.682.016c1.9,1.167,3.862,2.226,5.773,3.374,1.578.95,2.027,2.418,1.215,3.742-.773,1.261-2.206,1.543-3.767.685-1.4-.77-2.753-1.636-4.173-2.369a1.928,1.928,0,0,0-1.521-.171c-6.553,3.728-13.071,7.516-19.612,11.3.131.163.184.277.272.329q9.633,5.6,19.287,11.16a1.635,1.635,0,0,0,1.374-.006C252.627,245.332,259.1,241.579,265.854,237.673Zm-23,39.815c0-7.786.026-15.216-.052-22.645a2.42,2.42,0,0,0-1.165-1.6c-5.96-3.505-11.957-6.946-17.947-10.4-.325-.188-.674-.332-1.272-.623v2.054c0,5.206.354,10.443-.108,15.607-.4,4.435,1.04,6.907,5.066,8.823C232.61,271.192,237.5,274.4,242.852,277.488ZM222.6,130.659a5.2,5.2,0,0,0-.167.823c-.008,7.207-.035,14.413.038,21.619a2.4,2.4,0,0,0,1.118,1.635c5.956,3.511,11.951,6.953,17.941,10.405.372.215.785.361,1.325.605,0-7.671.022-15.155-.05-22.638-.005-.5-.637-1.149-1.143-1.447-5.02-2.958-10.075-5.859-15.123-8.771C225.268,132.16,223.99,131.448,222.6,130.659ZM380,242.116c-6.783,3.918-13.224,7.609-19.612,11.389a2.429,2.429,0,0,0-.779,1.82c-.056,6.52-.034,13.04-.034,19.56v2.4a3.58,3.58,0,0,0,.685-.184c6.287-3.622,12.586-7.224,18.826-10.926a2.617,2.617,0,0,0,.875-1.951c.069-5.49.039-10.981.039-16.472Zm-20.425-76.294c.656-.336,1.105-.544,1.532-.79,5.842-3.366,11.666-6.763,17.534-10.082a2.4,2.4,0,0,0,1.385-2.431c-.054-6.692-.026-13.384-.026-20.076v-1.91c-6.6,3.814-12.866,7.468-19.176,11.036a2.229,2.229,0,0,0-1.273,2.3c.05,5.891.024,11.783.024,17.674ZM336.658,237.63c.667.417,1.181.76,1.716,1.068,5.786,3.347,11.592,6.659,17.347,10.056a2.238,2.238,0,0,0,2.619-.011c5.814-3.411,11.66-6.769,17.493-10.149.475-.275.936-.575,1.551-.955-6.7-3.875-13.219-7.657-19.762-11.4a1.473,1.473,0,0,0-1.236.007C349.845,229.991,343.326,233.773,336.658,237.63ZM265.767,126.123c-.564-.366-.971-.655-1.4-.9-5.881-3.4-11.779-6.78-17.635-10.226a2.24,2.24,0,0,0-2.619.005c-5.857,3.445-11.752,6.824-17.632,10.23-.428.248-.836.531-1.393.887,5.236,3.026,10.321,5.972,15.415,8.9,1.631.939,3.284,2.556,4.929,2.557s3.3-1.614,4.926-2.552C255.447,132.093,260.531,129.148,265.767,126.123Zm88.66,39.776c0-7.775.021-15.2-.044-22.631a2.2,2.2,0,0,0-1-1.527c-6.007-3.527-12.051-6.992-18.088-10.467-.33-.189-.688-.329-1.033-.491-.1.2-.188.292-.188.389-.018,7.373-.047,14.747,0,22.121a2.071,2.071,0,0,0,.973,1.384c2.535,1.544,5.123,3,7.695,4.487C346.538,161.354,350.336,163.541,354.427,165.9Zm0,111.587c0-7.786.021-15.215-.045-22.644a2.2,2.2,0,0,0-1.013-1.522c-6.006-3.531-12.048-7-18.084-10.477-.328-.189-.688-.325-1.11-.521a5.1,5.1,0,0,0-.134.772c-.008,7.2-.034,14.405.039,21.607a2.411,2.411,0,0,0,1.118,1.629c2.974,1.812,6.011,3.521,9.027,5.264ZM248,277.27a3.275,3.275,0,0,0,.666-.165c6.283-3.619,12.578-7.219,18.814-10.918a2.6,2.6,0,0,0,.872-1.948c.063-6.8.041-13.6.033-20.4,0-.475-.082-.95-.145-1.623-6.666,3.856-13.141,7.575-19.568,11.378a2.308,2.308,0,0,0-.644,1.724c-.045,6.287-.028,12.574-.028,18.862Zm20.39-146.59c-.663.325-1.122.518-1.55.765-5.837,3.363-11.651,6.768-17.521,10.071a2.359,2.359,0,0,0-1.341,2.433c.046,6.744.023,13.488.023,20.232V165.8c.447-.2.653-.274.839-.381,6.183-3.563,12.379-7.1,18.521-10.739a2.567,2.567,0,0,0,.986-1.886c.078-5.429.044-10.859.044-16.288Z" transform="translate(-217.22 -108.75)" fill="#fff" fill-rule="evenodd"/>
  <path id="Path_2" data-name="Path 2" d="M354.978,293.388c-24.694.035-43.071-19.668-41.586-42.617a40.016,40.016,0,0,1,79.294-4.6c.25,1.346.335,2.656-1.031,3.513-1.748,1.1-3.57.011-4-2.383A34.874,34.874,0,0,0,318.717,249c-2.382,18.913,10.65,35.9,29.839,38.9,18.11,2.831,35.761-9.967,39.071-28.348.264-1.464.728-2.681,2.413-2.878,1.919-.224,3.1,1.3,2.7,3.552a37.55,37.55,0,0,1-4.531,12.684C380.38,286.135,368.662,292.815,354.978,293.388Z" transform="translate(-269.325 -165.475)" fill="#fff" fill-rule="evenodd"/>
  <path id="Path_3" data-name="Path 3" d="M360.2,252.486c-1.072,0-2.032.034-2.989-.007a2.564,2.564,0,0,1-2.711-2.5,2.633,2.633,0,0,1,2.8-2.628c2.8-.063,5.6-.017,8.407-.028.445,0,.891-.058,1.533-.1,0-1.256-.044-2.443.01-3.625.079-1.746,1.112-2.827,2.594-2.809s2.452,1.1,2.52,2.874c.044,1.134.008,2.271.008,3.536h6.552c0-1.247-.043-2.436.011-3.619.079-1.745,1.118-2.82,2.608-2.791a2.4,2.4,0,0,1,2.465,2.7c-.384,2.98.862,4.284,3.48,5.678,6.612,3.522,7.7,12.484,2.545,17.932-.313.331-.658.633-1.079,1.034.321.367.592.706.893,1.018a11.634,11.634,0,0,1-4.219,19.141c-1.271.479-1.684,1.066-1.568,2.336a12.244,12.244,0,0,1-.087,2.905,2.318,2.318,0,0,1-2.5,2.118,2.282,2.282,0,0,1-2.456-2.155c-.136-1.354-.03-2.732-.03-4.238h-6.619c0,1.205.04,2.394-.01,3.58-.074,1.782-1.058,2.839-2.555,2.834s-2.479-1.068-2.557-2.844c-.05-1.139-.009-2.281-.009-3.71h-4.988c-1.6,0-3.2.031-4.8-.01-1.809-.047-2.991-1.144-2.95-2.657.041-1.481,1.143-2.43,2.911-2.476.9-.024,1.8,0,2.789,0Zm5.34,13.056c5.794,0,11.382.007,16.969-.014a4,4,0,0,0,1.32-.327,6.506,6.506,0,0,0,4.186-7.24,6.587,6.587,0,0,0-6.549-5.445c-5.028-.071-10.057-.021-15.087-.011a4.434,4.434,0,0,0-.839.176Zm.031,18.321c.539.04.98.1,1.421.1,4.684.007,9.368.026,14.053,0,4.107-.024,7.034-2.787,7.04-6.58.006-3.829-2.837-6.516-7.025-6.552-4.512-.038-9.026-.01-13.538-.01h-1.95Z" transform="translate(-291.661 -180.346)" fill="#fff" fill-rule="evenodd"/>
</svg>
