<svg id="Group_2589" data-name="Group 2589" xmlns="http://www.w3.org/2000/svg" width="161.993" height="175.749" viewBox="0 0 161.993 175.749">
  <path id="Path_10" data-name="Path 10" d="M-41.279,108.75c1.563,1.169,3.426,2.1,4.592,3.583.895,1.137,1.053,2.945,1.265,4.493.132.965.316,1.461,1.307,1.83,2.776,1.034,5.507,2.2,8.212,3.406a1.542,1.542,0,0,0,2.065-.292c3.78-3.648,8.036-3.574,11.767.127,2.558,2.537,5.119,5.071,7.644,7.641,3.361,3.422,3.42,7.846.089,11.289a1.822,1.822,0,0,0-.421,2.48c1.224,2.571,2.262,5.233,3.282,7.894.339.883.628,1.382,1.742,1.408,5.274.125,8.191,3.179,8.2,8.443.009,3.546.02,7.092,0,10.637-.032,4.884-3.147,8.08-8.009,8.13a1.738,1.738,0,0,0-1.941,1.363c-1.026,2.778-2.2,5.507-3.407,8.212a1.461,1.461,0,0,0,.292,1.925c3.7,3.933,3.621,8.1-.163,11.9-2.5,2.514-5,5.033-7.526,7.517-3.5,3.433-7.875,3.472-11.411.044a1.739,1.739,0,0,0-2.35-.344c-2.583,1.2-5.224,2.293-7.895,3.287-.985.366-1.444.715-1.46,1.864-.07,5.006-3.208,8.062-8.214,8.1-3.545.028-7.091.021-10.637,0-5.135-.028-8.259-3.046-8.345-8.146a1.654,1.654,0,0,0-1.318-1.8c-2.72-1.021-5.4-2.148-8.056-3.333a1.664,1.664,0,0,0-2.227.269c-3.818,3.645-8.022,3.535-11.777-.2q-3.769-3.752-7.521-7.522c-3.443-3.481-3.525-7.938-.114-11.4a1.815,1.815,0,0,0,.337-2.492c-1.2-2.58-2.257-5.236-3.263-7.9-.347-.917-.709-1.328-1.777-1.344-5.124-.074-8.142-3.193-8.161-8.317q-.019-5.318,0-10.637c.021-5.031,3.037-8.17,8.044-8.258a1.749,1.749,0,0,0,1.918-1.408c.977-2.675,2.079-5.311,3.264-7.9a1.742,1.742,0,0,0-.291-2.355c-3.494-3.6-3.426-7.974.093-11.527q3.8-3.84,7.643-7.643c3.563-3.531,7.95-3.6,11.522-.113a1.719,1.719,0,0,0,2.339.325c2.637-1.217,5.376-2.211,8.038-3.379.511-.224,1.231-.85,1.215-1.264-.173-4.4,2.123-7.013,5.963-8.589Zm5.911,98.21a22.538,22.538,0,0,0,2.333-.822c2.256-1.1,4.5-2.226,6.721-3.4,1.943-1.029,3.228-.922,4.814.582a32.04,32.04,0,0,0,2.587,2.5,1.785,1.785,0,0,0,1.691.081q4.048-3.835,7.894-7.878a1.762,1.762,0,0,0-.014-1.689,35.426,35.426,0,0,0-2.616-2.713c-1.386-1.466-1.625-2.826-.6-4.508a47.622,47.622,0,0,0,5.51-13.235c.505-2.01,1.635-2.826,3.708-2.884,1.2-.034,2.4-.033,3.6,0,.943.023,1.352-.4,1.348-1.332-.013-3.6-.021-7.208.006-10.812.008-1.043-.46-1.433-1.457-1.409-1.2.029-2.4.044-3.6-.014-2.015-.1-3.1-.892-3.585-2.82a47.6,47.6,0,0,0-5.588-13.387,3.277,3.277,0,0,1,.5-4.249c.856-.922,1.739-1.823,2.663-2.675.826-.763.752-1.374-.031-2.138q-3.806-3.717-7.527-7.52c-.712-.725-1.3-.785-2.007-.024-.818.879-1.673,1.725-2.548,2.548-1.523,1.434-2.88,1.64-4.656.55A46.459,46.459,0,0,0-39.3,124.261a3.42,3.42,0,0,1-2.919-3.685c-.043-1.2-.032-2.4-.008-3.6.018-.915-.331-1.37-1.305-1.364-3.661.023-7.323-.03-10.982.065a1.748,1.748,0,0,0-1.182,1.192c-.168,1.236-.026,2.511-.075,3.768a3.374,3.374,0,0,1-2.809,3.6,47.648,47.648,0,0,0-13.24,5.5c-1.779,1.079-3.113.847-4.645-.609-.788-.749-1.583-1.5-2.3-2.31-.825-.937-1.495-.971-2.383-.025-1.723,1.833-3.543,3.575-5.323,5.355-3.082,3.082-3.082,3.082-.077,6.12.161.163.328.32.483.488,1.424,1.542,1.652,2.889.573,4.663a46.431,46.431,0,0,0-5.432,13.081c-.5,2.029-1.587,2.837-3.681,2.933-1.142.052-2.29.059-3.431.006-1.2-.056-1.606.461-1.589,1.632.049,3.432.059,6.865,0,10.3-.024,1.321.541,1.711,1.755,1.639,1.083-.065,2.174-.04,3.26-.005,1.995.063,3.155.863,3.63,2.757a47.168,47.168,0,0,0,5.574,13.392,3.336,3.336,0,0,1-.532,4.388,26.955,26.955,0,0,1-2.31,2.3c-1.211,1-1.032,1.773.049,2.763,1.685,1.544,3.25,3.22,4.872,4.835,3.32,3.307,3.321,3.306,6.621.107.041-.04.08-.082.121-.122,1.671-1.592,2.939-1.758,4.939-.636.648.363,1.266.788,1.936,1.1,2.278,1.072,4.574,2.107,7.091,3.261,0-4.708-.056-8.941.033-13.17a2.476,2.476,0,0,0-1.576-2.615A30.312,30.312,0,0,1-72.86,144.7c2.755-3.168,5.845-6.011,10-7.255a5.3,5.3,0,0,1,6.988,3.985,12.929,12.929,0,0,1,.378,3.222c-.01,5.834-.086,11.667-.114,17.5a10.8,10.8,0,0,0,.226,2.21,7.252,7.252,0,0,0,6.142,5.67c2.476.18,5.477-2.083,6.4-4.888a7.155,7.155,0,0,0,.413-2.179c.009-5.834-.049-11.668-.043-17.5a17.649,17.649,0,0,1,.3-3.911,5.324,5.324,0,0,1,7.059-4.1,12.359,12.359,0,0,1,2.826,1.2,30.309,30.309,0,0,1,13.789,32.674,30.433,30.433,0,0,1-15.663,20.251,2.348,2.348,0,0,0-1.161,1.581C-35.409,197.68-35.369,202.2-35.369,206.96Zm-27.113-62.207c-.387.243-.621.371-.834.527-7.049,5.144-10.643,12.1-10.023,20.792.676,9.469,5.649,16.254,14.325,20.119,2.337,1.041,3.308,2.442,3.281,4.955-.084,7.89.008,15.782-.063,23.673-.014,1.6.507,2.095,2.073,2.043,3.084-.1,6.178-.114,9.261,0,1.7.065,2.285-.433,2.265-2.208-.089-7.833.015-15.668-.069-23.5a4.671,4.671,0,0,1,3.278-4.944,23.405,23.405,0,0,0,13.8-26.939,23.139,23.139,0,0,0-10.235-14.5,3.117,3.117,0,0,0-.171.628c.018,5.489.092,10.977.041,16.466a19.5,19.5,0,0,1-.617,4.907c-1.6,5.86-7.766,10.549-13.173,10.171a14.067,14.067,0,0,1-12.9-12.174,59.051,59.051,0,0,1-.227-6.675C-62.5,153.717-62.481,149.339-62.481,144.753Z" transform="translate(153.513 -108.75)" fill="#fff" fill-rule="evenodd"/>
  <path id="Path_11" data-name="Path 11" d="M-117.93,419.557q-14.222-3.773-28.444-7.549c-7.174-1.911-14.3-4.029-21.533-5.679-2.951-.673-6.127-.383-9.2-.439-.326-.005-.767.561-.979.956a9.094,9.094,0,0,1-8.583,5.225c-4.348-.02-8.7.015-13.044-.01-5.646-.032-9.48-3.842-9.492-9.491q-.038-17.592,0-35.184a9.134,9.134,0,0,1,9.487-9.547q6.522-.051,13.044,0a8.936,8.936,0,0,1,8.458,5.13,1.816,1.816,0,0,0,1.822,1.155,21.885,21.885,0,0,0,9.359-1.641,41.834,41.834,0,0,1,14.987-3.305c8.294-.2,15.353,3.021,21.718,8.058a14.831,14.831,0,0,1,2.35,2c1.8,2.184,4.024,2.767,6.8,2.643,4.8-.214,9.611.028,14.413-.086,4.079-.1,7.7.873,10.688,3.889,1.92-.975,3.8-1.922,5.673-2.883q10.675-5.476,21.345-10.96a13.06,13.06,0,0,1,11.892-.537c8.231,3.741,9.428,14.979,2.112,20.784-4.071,3.23-8.413,6.121-12.678,9.1a3.378,3.378,0,0,1-4.74-.715,3.387,3.387,0,0,1,.816-4.85c3.786-2.765,7.707-5.354,11.4-8.236a8.68,8.68,0,0,0,2.935-4.019c1.132-3.816-2.359-7.082-6.4-6.214a10.636,10.636,0,0,0-2.549.975c-8.393,4.292-16.765,8.623-25.166,12.9a1.72,1.72,0,0,0-1.173,2.049,12.568,12.568,0,0,1-12.489,14.1c-9.953.13-19.908.051-29.862.031-2.345,0-3.889-1.424-3.9-3.434-.011-2.106,1.511-3.414,4.04-3.416,9.668-.008,19.337.006,29-.009,3.4-.006,5.871-1.909,6.378-4.829a5.816,5.816,0,0,0-5.883-6.817c-6.006-.054-12.015-.083-18.02.008a10.274,10.274,0,0,1-7.732-3,35.435,35.435,0,0,0-12.661-8.319c-6.368-2.269-12.656-1.451-18.8.767-4.542,1.638-9.027,3.287-13.971,2.834a2.23,2.23,0,0,0-.683.179v27.564c.175.092.276.2.367.187,7.662-.721,14.777,1.771,21.985,3.723,11.356,3.076,22.727,6.094,34.065,9.233a17.57,17.57,0,0,0,14.937-2.17c3.017-1.962,5.935-4.078,8.908-6.109a3.339,3.339,0,0,1,3.869-.169,3.069,3.069,0,0,1,1.543,3.36,3.31,3.31,0,0,1-.972,1.922c-5.337,4.02-10.57,8.241-17.176,10.111-.92.26-1.848.491-2.773.735Zm-66.209-34.545c0-5.827.011-11.654-.006-17.48-.005-2.005-.795-2.812-2.8-2.825q-6.341-.041-12.682,0c-1.895.015-2.714.842-2.717,2.746q-.025,17.48,0,34.961c0,2.007.8,2.771,2.821,2.78q6.169.027,12.339,0c2.4-.006,3.038-.642,3.042-3.05Q-184.129,393.58-184.139,385.012Z" transform="translate(209.225 -243.808)" fill="#fff" fill-rule="evenodd"/>
  <path id="Path_12" data-name="Path 12" d="M64.1,443.565a3.332,3.332,0,0,1-3.427-3.271,3.434,3.434,0,0,1,3.377-3.534,3.5,3.5,0,0,1,3.463,3.481A3.412,3.412,0,0,1,64.1,443.565Z" transform="translate(62.869 -286.617)" fill="#fff" fill-rule="evenodd"/>
</svg>
