<svg id="Group_2588" data-name="Group 2588" xmlns="http://www.w3.org/2000/svg" width="170.259" height="170.273" viewBox="0 0 170.259 170.273">
  <path id="Path_4" data-name="Path 4" d="M832.168,189.277c1.192.5,2.3.937,3.385,1.433,1.846.846,3.434,1.958,3.4,4.27-.029,2.218-1.559,3.313-3.351,4.131-1.086.5-2.2.925-3.417,1.43.167,1.259.377,2.488.486,3.726.166,1.9-.036,3.7-1.845,4.837-1.845,1.16-3.5.452-5.1-.613-1.124-.751-2.236-2.086-3.364-2.1-1.05-.01-2.089,1.424-3.177,2.153-2.628,1.761-4.4,1.523-6.387-.747l-5.344,5.4,8.382,8.047c-2.093,1.972-3.86,3.578-5.559,5.251-2.935,2.889-5.866,5.786-8.71,8.763a3.755,3.755,0,0,0-1,2.33,52.283,52.283,0,0,1-42.451,51.478c-27.266,5.356-54.665-12.368-60.53-39.5-4.277-19.786,1.306-36.7,16.016-50.6.249-.236.513-.457.755-.7a1.742,1.742,0,0,0,.2-.394c-2.83-.991-5.7-1.849-8.449-3-2.891-1.21-5.654-2.721-8.493-4.056a2.41,2.41,0,0,1-1.465-2.564c.065-6.284.03-12.569.03-19.082-.937,0-1.771.011-2.6,0a8.212,8.212,0,0,1-8.369-8.373c-.04-5.663-.01-11.327-.011-16.99v-2.061a27.666,27.666,0,0,0-3.11.022c-1.511.176-2.362,1.3-2.373,3.06-.025,4.119-.009,8.238-.009,12.357,0,9.153-.014,18.306.032,27.46a2.413,2.413,0,0,0,.743,1.8c5.115,3.181,6.148,7.837,2.608,13,2.3,2.333,2.134,5.386,2.12,8.431-.033,7.148-.01,14.3-.01,21.577H668.722v-1.793c0-7.208.04-14.417-.022-21.624a9.644,9.644,0,0,1,2.1-6.617c-1.589-2.146-2.5-4.472-1.884-7.194a7.662,7.662,0,0,1,4.07-5.441,2.075,2.075,0,0,0,1.247-2.262c-.026-12.872.156-25.747-.088-38.614-.125-6.538,4.511-10.3,9.71-9.7a13.092,13.092,0,0,0,1.346.006c0-2.641-.008-5.14,0-7.639.02-5.368,3.438-8.832,8.773-8.833q54.4-.011,108.808,0c5.255,0,8.723,3.457,8.732,8.7q.027,15.876,0,31.75c0,5.587-3.387,8.955-8.981,8.976-.613,0-1.226,0-2,0v7.672c0,3.833-.058,7.667.034,11.5a2.438,2.438,0,0,1-1.393,2.44,71,71,0,0,1-15.435,6.509c-.524.162-1.046.331-1.631.515L789.919,206l4.845-5.257,7.991,8.488,9.016-9.058a35.478,35.478,0,0,1-3.4-1.62c-3.169-1.9-3.186-5.382-.008-7.259a45.886,45.886,0,0,1,4.448-2.037c-.159-1.172-.355-2.345-.472-3.527-.193-1.953-.035-3.816,1.844-5,1.851-1.164,3.513-.429,5.1.628,1.087.724,2.13,2.093,3.2,2.1s2.115-1.354,3.2-2.076c1.582-1.056,3.24-1.815,5.1-.678,1.9,1.158,2.073,3.022,1.886,4.979C832.555,186.821,832.355,187.948,832.168,189.277Zm-83.744,95.395c2.555-.276,5.124-.452,7.661-.842,17.968-2.765,33.359-17.018,37.575-34.743,4.425-18.6-2.48-37.837-17.55-48.654a4.062,4.062,0,0,0-2.81-.538,137.228,137.228,0,0,1-49.8-.044,3.581,3.581,0,0,0-3.159.676c-11.351,8.817-17.735,20.382-18.563,34.706A46.888,46.888,0,0,0,748.424,284.672Zm-57.652-132.1H806.026c0-7.783,0-15.443,0-23.1,0-3.524-.7-4.234-4.178-4.234H694.765c-.515,0-1.154-.18-1.519.057-.893.58-2.289,1.3-2.362,2.064-.278,2.915-.112,5.873-.112,8.8.37.031.541.058.712.058q23.939,0,47.878.037c1.074,0,1.434-.5,1.881-1.295a8.066,8.066,0,0,1,9.205-3.931,8.2,8.2,0,0,1,.006,15.88,7.97,7.97,0,0,1-9.185-3.937,2.118,2.118,0,0,0-2.245-1.275q-23.338.043-46.677.02h-1.574Zm11.117,16.634a2.064,2.064,0,0,0-.2.6c-.013,5.376-.042,10.752.033,16.127a2,2,0,0,0,1.089,1.419,140.761,140.761,0,0,0,13.6,5.121c16.938,4.744,34.167,5.218,51.5,2.7a86.52,86.52,0,0,0,25.693-7.6,2.187,2.187,0,0,0,1.476-2.307c-.087-4.8-.036-9.608-.036-14.412V169.21ZM690.8,158.249c-.4,4.742.225,5.436,4.731,5.436H801.712a15.267,15.267,0,0,0,1.714-.025,2.643,2.643,0,0,0,2.562-2.532,28.251,28.251,0,0,0,.018-2.879Zm136.067,44.27c-.784-4.02.663-6.356,4.617-7.6-4.017-1.264-5.408-3.627-4.608-7.593-3.076,2.685-5.779,2.625-8.8-.019.893,4.067-.631,6.358-4.543,7.626,4.005,1.261,5.386,3.63,4.6,7.539C821.152,199.914,823.8,199.851,826.866,202.518Zm-147.16,21.51c0-6.257.006-12.355,0-18.453,0-2.162-1.018-3.417-2.721-3.433s-2.758,1.247-2.763,3.387c-.012,5.137,0,10.273,0,15.408v3.09Zm127.442-2.65L794.79,209l-1.806,1.824a53.608,53.608,0,0,1,6.767,17.959ZM751.09,138.911a2.732,2.732,0,1,0-2.675,2.79A2.765,2.765,0,0,0,751.09,138.911Zm-74.213,57.712a2.734,2.734,0,1,0-2.648-2.815A2.77,2.77,0,0,0,676.876,196.623Z" transform="translate(-668.699 -119.746)" fill="#fff" fill-rule="evenodd"/>
  <path id="Path_5" data-name="Path 5" d="M823.677,329.537v-5.58h5.449v5.572a13.965,13.965,0,0,1,9.043,6.349,12.9,12.9,0,0,1,1.946,6.992h-5.33c-.939-5.357-3.919-8.136-8.655-8.031a8.034,8.034,0,0,0-2.233,15.729c1.8.544,3.65.927,5.471,1.406,6.519,1.711,10.664,6.693,10.776,12.934.114,6.32-3.783,11.464-10.17,13.426-.218.066-.438.127-.761.22v5.573H823.73v-5.482c-8.181-2.3-11.736-8.5-10.971-16.209h5.434c0,1.007-.038,2.07.007,3.131a8.058,8.058,0,0,0,7.563,7.7,8.15,8.15,0,0,0,8.8-6.731,8.033,8.033,0,0,0-5.863-9.051c-1.7-.485-3.421-.9-5.139-1.329-6.39-1.582-10.65-6.557-10.852-12.691-.212-6.417,3.66-11.666,10.078-13.661C823.046,329.719,823.313,329.645,823.677,329.537Z" transform="translate(-746.762 -230.482)" fill="#fff" fill-rule="evenodd"/>
  <path id="Path_6" data-name="Path 6" d="M768.4,306.976l3.384,4.3a36.009,36.009,0,0,0-13.625,27.977H752.68C753.014,326.1,758.187,315.427,768.4,306.976Z" transform="translate(-714.239 -221.274)" fill="#fff" fill-rule="evenodd"/>
  <path id="Path_7" data-name="Path 7" d="M872.983,239.906h5.285v5.28h-5.285Z" transform="translate(-779.474 -184.904)" fill="#fff" fill-rule="evenodd"/>
  <path id="Path_8" data-name="Path 8" d="M896.9,239.879h5.3v5.329h-5.3Z" transform="translate(-792.443 -184.89)" fill="#fff" fill-rule="evenodd"/>
  <path id="Path_9" data-name="Path 9" d="M926.261,245.274h-5.3v-5.329h5.3Z" transform="translate(-805.492 -184.925)" fill="#fff" fill-rule="evenodd"/>
</svg>
