<svg xmlns="http://www.w3.org/2000/svg" width="139" height="139" viewBox="0 0 139 139">
  <g id="Group_2593" data-name="Group 2593" transform="translate(-1065 -3099)">
    <rect id="Rectangle_10" data-name="Rectangle 10" width="139" height="139" rx="24" transform="translate(1065 3099)" fill="#006cf9"/>
    <g id="Group_5" data-name="Group 5" transform="translate(1088 3119)">
      <path id="Path_13" data-name="Path 13" d="M63.185-776.825l19.942-11.516q5.579-3.221,11.158-6.442a2.969,2.969,0,0,1,3.189.01c10.344,5.979,20.692,11.951,30.952,17.875a25.544,25.544,0,0,1,3.3-1.85,8.056,8.056,0,0,1,10.39,4.728,8.081,8.081,0,0,1-4.667,10.431,1.335,1.335,0,0,0-1.047,1.506c.033,11.541,0,23.081.051,34.621a3.189,3.189,0,0,1-1.851,3.151c-10.036,5.736-20.03,11.546-30.052,17.309a1.121,1.121,0,0,0-.692,1.423A8.086,8.086,0,0,1,97.22-696.2,8.061,8.061,0,0,1,87.9-702.67a25.986,25.986,0,0,1-.03-3.908c-1.182-.69-2.511-1.473-3.846-2.244Q70.348-716.716,56.664-724.6a2.516,2.516,0,0,1-1.4-2.428c.023-11.767.009-23.534.028-35.3a1.029,1.029,0,0,0-.8-1.17,7.763,7.763,0,0,1-5.38-7.142,7.646,7.646,0,0,1,4.458-7.745,7.819,7.819,0,0,1,8.959,1.077c.176.14.348.286.524.427A.626.626,0,0,0,63.185-776.825ZM101.742-709.9a2.146,2.146,0,0,0,.225-.093Q116.99-718.656,132-727.343a1.333,1.333,0,0,0,.527-.987c.027-11.38.018-22.76.035-34.14,0-.6-.222-.81-.761-1.01a7.7,7.7,0,0,1-5.2-5.9,21.373,21.373,0,0,1-.044-4.092c-.063-.042-.191-.137-.327-.216q-14.89-8.6-29.794-17.182a1.431,1.431,0,0,0-1.2.044q-14.746,8.463-29.469,16.969a.981.981,0,0,0-.565,1.221,7.985,7.985,0,0,1-5.191,9.1c-.747.269-.861.634-.86,1.327q.029,16.779-.005,33.558a1.492,1.492,0,0,0,.87,1.51Q72.073-720.22,84.1-713.253c1.95,1.125,3.9,2.253,5.825,3.367A8.32,8.32,0,0,1,101.742-709.9ZM57.219-766.879a4.276,4.276,0,0,0,4.265-4.238,4.282,4.282,0,0,0-4.216-4.29,4.278,4.278,0,0,0-4.313,4.288A4.278,4.278,0,0,0,57.219-766.879Zm77.3,0a4.233,4.233,0,0,0,4.229-4.255,4.237,4.237,0,0,0-4.212-4.274,4.3,4.3,0,0,0-4.3,4.306A4.3,4.3,0,0,0,134.518-766.878Zm-34.409,62.641a4.245,4.245,0,0,0-4.246-4.244,4.305,4.305,0,0,0-4.279,4.237,4.31,4.31,0,0,0,4.321,4.295A4.251,4.251,0,0,0,100.109-704.238Z" transform="translate(-49.097 795.243)" fill="#fff" fill-rule="evenodd"/>
      <path id="Path_14" data-name="Path 14" d="M202.932-686.681c0,4.752-.021,9.5.015,14.255A2.5,2.5,0,0,1,201.557-670q-12.39,7.115-24.745,14.29a2.536,2.536,0,0,1-2.808,0q-12.357-7.172-24.747-14.288a2.592,2.592,0,0,1-1.431-2.512q.034-14.206,0-28.413a2.659,2.659,0,0,1,1.5-2.571q12.313-7.056,24.58-14.189a2.663,2.663,0,0,1,2.977-.017q12.269,7.131,24.579,14.191a2.628,2.628,0,0,1,1.492,2.567C202.9-696.185,202.932-691.433,202.932-686.681Zm-25.608,26.109c.314-.147.49-.214.651-.307q10.234-5.905,20.475-11.8a1.13,1.13,0,0,0,.61-1.164q-.017-11.683-.01-23.367c0-.243-.032-.485-.056-.838-.4.212-.712.364-1.011.536q-10.571,6.1-21.131,12.212a2.567,2.567,0,0,1-2.882.007q-10.543-6.145-21.129-12.216c-.324-.187-.657-.357-1.071-.581-.026.291-.051.444-.051.6,0,7.918.007,15.836-.019,23.755a1.128,1.128,0,0,0,.737,1.094q10.072,5.8,20.134,11.616c.242.139.5.251.829.415.018-.38.042-.661.042-.942,0-2.489-.011-4.977.008-7.466a1.987,1.987,0,0,1,1.876-2.168,1.93,1.93,0,0,1,1.991,2.126C177.334-666.288,177.324-663.51,177.324-660.572ZM153.76-701.551a6.032,6.032,0,0,0,.52.39q10.267,5.936,20.531,11.878a1.135,1.135,0,0,0,1.317-.086q10.095-5.847,20.2-11.674c.229-.132.441-.3.7-.472-.177-.126-.251-.188-.334-.236q-10.353-5.981-20.7-11.975a1.123,1.123,0,0,0-1.31.081q-5.608,3.258-11.23,6.495Z" transform="translate(-128.634 733.126)" fill="#fff" fill-rule="evenodd"/>
      <path id="Path_15" data-name="Path 15" d="M283.55-519.541a1.922,1.922,0,0,1-1.906,1.9,1.98,1.98,0,0,1-1.955-1.969,1.98,1.98,0,0,1,1.929-1.9A1.918,1.918,0,0,1,283.55-519.541Z" transform="translate(-234.87 574.712)" fill="#fff" fill-rule="evenodd"/>
    </g>
  </g>
</svg>
