<svg xmlns="http://www.w3.org/2000/svg" width="139" height="139" viewBox="0 0 139 139">
  <g id="Group_2594" data-name="Group 2594" transform="translate(-1035 -3278)">
    <rect id="Rectangle_11" data-name="Rectangle 11" width="139" height="139" rx="24" transform="translate(1035 3278)" fill="#006cf9"/>
    <g id="Group_7" data-name="Group 7" transform="translate(1061 3304)">
      <path id="Path_17" data-name="Path 17" d="M848.714-752.78v2.038c-.061.215-.131.428-.183.645a7.626,7.626,0,0,1-2.823,4.409,7.666,7.666,0,0,1-11.634-2.843c-.133-.275-.46-.638-.707-.646-1.721-.056-3.445-.03-5.243-.03a23.3,23.3,0,0,1-4.885,11.775c.095.115.159.208.238.287q6.928,6.934,13.847,13.876c.365.368.637.288,1.032.143a7.652,7.652,0,0,1,8.489,2.163,9.179,9.179,0,0,1,1.869,4.022v2.038c-.059.183-.13.364-.175.551a7.585,7.585,0,0,1-4.684,5.526c-.566.236-1.175.368-1.765.547h-2.038c-.187-.056-.371-.126-.561-.167a7.635,7.635,0,0,1-5.641-10.111,1.032,1.032,0,0,0-.31-1.292q-6.678-6.644-13.325-13.32a4.947,4.947,0,0,1-.5-.707,23.442,23.442,0,0,1-11.933,5c0,1.659.034,3.242-.017,4.822a1.087,1.087,0,0,0,.759,1.194,7.59,7.59,0,0,1,4.347,7.517,7.674,7.674,0,0,1-5.168,6.635c-.478.162-.969.283-1.455.423h-2.038c-.186-.057-.37-.126-.559-.169a7.57,7.57,0,0,1-4.494-2.836A7.665,7.665,0,0,1,802-722.918c.276-.133.642-.458.65-.7.057-1.722.03-3.446.03-5.246a23.311,23.311,0,0,1-11.773-4.886c-.114.093-.207.156-.286.234q-6.934,6.929-13.877,13.849c-.365.362-.3.633-.15,1.031a7.659,7.659,0,0,1-2.156,8.492,9.2,9.2,0,0,1-4.024,1.869h-2.038c-.184-.058-.365-.128-.552-.174a7.617,7.617,0,0,1-5.7-5.158c-.149-.422-.249-.861-.372-1.293v-2.038c.055-.185.121-.367.164-.554a7.613,7.613,0,0,1,10.261-5.585.862.862,0,0,0,1.073-.312q6.745-6.759,13.5-13.507c.159-.159.306-.329.485-.522a23.248,23.248,0,0,1-4.895-11.785c-1.653,0-3.236.033-4.817-.017a1.117,1.117,0,0,0-1.2.753,7.319,7.319,0,0,1-7.258,4.338,7.353,7.353,0,0,1-6.706-4.682,16.071,16.071,0,0,1-.607-1.927v-2.038c.066-.242.136-.483.2-.726a7.667,7.667,0,0,1,2.8-4.329,7.669,7.669,0,0,1,11.636,2.841c.133.275.46.64.706.648,1.722.057,3.446.03,5.253.03a23.134,23.134,0,0,1,4.876-11.778c-.091-.112-.154-.206-.233-.285q-6.93-6.933-13.852-13.875c-.362-.364-.631-.289-1.033-.153a7.531,7.531,0,0,1-7.958-1.608,8.333,8.333,0,0,1-2.4-4.566v-2.038c.063-.213.135-.424.188-.64a7.348,7.348,0,0,1,3.616-4.9,20.767,20.767,0,0,1,2.82-1.084h2.038a4.532,4.532,0,0,0,.479.154,7.617,7.617,0,0,1,5.72,10.123,1.032,1.032,0,0,0,.315,1.291q6.588,6.554,13.145,13.139a8.861,8.861,0,0,1,.687.883,23.437,23.437,0,0,1,11.92-5c0-1.659-.034-3.242.017-4.822a1.094,1.094,0,0,0-.76-1.193,7.614,7.614,0,0,1-.976-13.223,18.052,18.052,0,0,1,3.254-1.351h2.038c.186.057.37.126.56.168a7.52,7.52,0,0,1,4.543,2.9,7.66,7.66,0,0,1-2.892,11.566c-.275.133-.639.46-.647.707-.056,1.722-.03,3.446-.03,5.252a23.15,23.15,0,0,1,11.779,4.875c.11-.088.2-.151.282-.229q6.933-6.929,13.875-13.851c.366-.363.292-.635.147-1.032a7.636,7.636,0,0,1,2.034-8.375,9,9,0,0,1,4.148-1.985h2.038c.185.058.366.13.554.173a7.336,7.336,0,0,1,5.029,3.7,20.3,20.3,0,0,1,1.041,2.747v2.038c-.066.243-.138.483-.2.728a7.639,7.639,0,0,1-10.081,5.468,1.03,1.03,0,0,0-1.29.318q-6.615,6.647-13.259,13.264a6.22,6.22,0,0,1-.766.562,23.464,23.464,0,0,1,5,11.925c1.659,0,3.242-.034,4.823.017a1.113,1.113,0,0,0,1.2-.758,7.309,7.309,0,0,1,7.173-4.337,7.355,7.355,0,0,1,6.79,4.684A16.134,16.134,0,0,1,848.714-752.78Zm-38.257-1.579c-.424-2.656-.7-5.246-1.284-7.765a32.974,32.974,0,0,0-1.946-5.4c-.377-.884-.913-2.019-1.969-2.03-1.11-.012-1.611,1.166-2.04,2.058a29.107,29.107,0,0,0-1.618,4.086,36.248,36.248,0,0,0-1.4,9.051Zm-10.271,5.2a34.765,34.765,0,0,0,2.281,11.562,14.3,14.3,0,0,0,1.564,2.8c.885,1.233,1.48,1.189,2.44-.015a3.534,3.534,0,0,0,.53-.765c.642-1.5,1.37-2.981,1.857-4.533a35.085,35.085,0,0,0,1.406-9.047Zm12.566-18.749a43.709,43.709,0,0,1,2.67,13.559h7.43C822.414-759.834,817.985-765.777,812.751-767.912Zm.018,32.278a17.386,17.386,0,0,0,10.093-13.514h-7.451A43.566,43.566,0,0,1,812.769-735.634Zm-15.054-32.3c-5.188,2.074-10.39,9.162-10.07,13.568h7.4A43.521,43.521,0,0,1,797.715-767.929Zm-2.667,18.767h-7.454A17.352,17.352,0,0,0,797.7-735.647,43.158,43.158,0,0,1,795.048-749.162Zm43.454-2.562a2.538,2.538,0,0,0,2.557,2.511,2.589,2.589,0,0,0,2.544-2.546,2.587,2.587,0,0,0-2.62-2.553A2.539,2.539,0,0,0,838.5-751.723ZM805.2-718.49a2.534,2.534,0,0,0-2.518,2.548,2.591,2.591,0,0,0,2.537,2.552A2.592,2.592,0,0,0,807.781-716,2.535,2.535,0,0,0,805.2-718.49Zm-.012-66.543a2.539,2.539,0,0,0,2.592-2.476,2.59,2.59,0,0,0-2.55-2.624,2.588,2.588,0,0,0-2.549,2.539A2.537,2.537,0,0,0,805.189-785.032Zm-33.227,33.3a2.539,2.539,0,0,0-2.488-2.58,2.59,2.59,0,0,0-2.612,2.561,2.592,2.592,0,0,0,2.551,2.538A2.539,2.539,0,0,0,771.961-751.731Zm-2.6-33.3a2.5,2.5,0,0,0,2.6-2.45,2.533,2.533,0,0,0-2.513-2.642,2.59,2.59,0,0,0-2.578,2.513A2.532,2.532,0,0,0,769.357-785.036Zm71.655,0a2.537,2.537,0,0,0,2.587-2.485,2.589,2.589,0,0,0-2.569-2.607,2.533,2.533,0,0,0-2.523,2.547A2.492,2.492,0,0,0,841.011-785.035Zm-71.575,66.549a2.533,2.533,0,0,0-2.572,2.5,2.6,2.6,0,0,0,2.585,2.593,2.538,2.538,0,0,0,2.508-2.564A2.491,2.491,0,0,0,769.436-718.486Zm69.07,2.523a2.535,2.535,0,0,0,2.5,2.569,2.594,2.594,0,0,0,2.59-2.588,2.534,2.534,0,0,0-2.566-2.5A2.49,2.49,0,0,0,838.506-715.963Z" transform="translate(-761.75 795.243)" fill="#fff" fill-rule="evenodd"/>
    </g>
  </g>
</svg>
