<svg xmlns="http://www.w3.org/2000/svg" width="139" height="139" viewBox="0 0 139 139">
  <g id="Group_2595" data-name="Group 2595" transform="translate(-1065 -3463)">
    <rect id="Rectangle_12" data-name="Rectangle 12" width="139" height="139" rx="24" transform="translate(1065 3463)" fill="#006cf9"/>
    <g id="Group_6" data-name="Group 6" transform="translate(1092 3489.118)">
      <path id="Path_16" data-name="Path 16" d="M-278.529-748.252c0,4.428.013,8.856-.015,13.283a1.068,1.068,0,0,0,.792,1.2,5.9,5.9,0,0,1,3.874,5.391,5.865,5.865,0,0,1-3.139,5.76,5.908,5.908,0,0,1-6.628-.325,1,1,0,0,0-1.278-.059q-12.114,7.018-24.255,13.992a1.1,1.1,0,0,0-.641,1.143,6.216,6.216,0,0,1-6.207,6.411,6.22,6.22,0,0,1-6.25-6.368,1.181,1.181,0,0,0-.689-1.217q-12.141-6.973-24.255-13.993a.932.932,0,0,0-1.2.07,5.928,5.928,0,0,1-6.711.339,5.866,5.866,0,0,1-3.1-5.874,5.922,5.922,0,0,1,3.98-5.315.937.937,0,0,0,.694-1.062q-.019-13.478,0-26.958a.944.944,0,0,0-.7-1.058,5.937,5.937,0,0,1-3.956-5.337,5.868,5.868,0,0,1,3.14-5.854,5.928,5.928,0,0,1,6.709.38.869.869,0,0,0,1.111.061q12.157-7.043,24.337-14.045a1.1,1.1,0,0,0,.641-1.142,6.216,6.216,0,0,1,6.2-6.413,6.216,6.216,0,0,1,6.254,6.365,1.18,1.18,0,0,0,.685,1.218q12.1,6.948,24.17,13.944a1.074,1.074,0,0,0,1.362-.071,5.907,5.907,0,0,1,6.629-.292,5.871,5.871,0,0,1,3.1,5.873,5.887,5.887,0,0,1-3.886,5.278,1.064,1.064,0,0,0-.792,1.2C-278.516-757.238-278.529-752.745-278.529-748.252Zm-54.837-8.1a1.465,1.465,0,0,0-.242.233c-1.442,2.432-2.9,4.858-4.3,7.315a1.248,1.248,0,0,0,.069,1.034c.955,1.7,1.966,3.368,2.959,5.047l1.43,2.416c3.422-1.934,6.72-3.825,10.049-5.66.852-.469,1.534-.859,1.138-2.03-.144-.424.087-.961.061-1.443a1.045,1.045,0,0,0-.328-.761C-326.128-752.268-329.748-754.3-333.366-756.349Zm34.726-.04c-3.5,1.977-6.911,3.922-10.344,5.825-.681.378-1.166.687-.864,1.61a2.86,2.86,0,0,1-.047,1.539c-.155.58.066.807.525,1.055,1.343.725,2.663,1.495,3.993,2.245,2.227,1.256,4.455,2.512,6.741,3.8a49.367,49.367,0,0,1,3.148-5.228c1.551-2,1.5-3.669-.021-5.651A50.83,50.83,0,0,1-298.64-756.389Zm-1.584-2.705c-1.526-2.588-2.963-5.064-4.458-7.5a1.373,1.373,0,0,0-1.007-.488c-2.148-.044-4.3-.022-6.446-.022h-2.292v12.552c.9.552,1.686,1.071,2.512,1.508a1.134,1.134,0,0,0,.916.021c1.436-.76,2.844-1.576,4.259-2.377C-304.594-756.618-302.449-757.833-300.223-759.094Zm-14.2,16.954v12.546c3.074,0,6.093.008,9.113-.017a.848.848,0,0,0,.589-.384c1.5-2.5,2.972-5.022,4.5-7.619-3.711-2.1-7.354-4.158-11.012-6.194-.154-.086-.48.029-.674.141C-312.721-743.2-313.512-742.7-314.427-742.139Zm-3.181,12.546c0-4.036-.019-7.938.018-11.84a1.029,1.029,0,0,0-.821-1.184,4.486,4.486,0,0,1-1.5-.884.99.99,0,0,0-1.362-.108c-3.269,1.88-6.56,3.723-9.841,5.582-.243.138-.472.3-.724.463,1.5,2.538,2.944,5.007,4.42,7.458a1.059,1.059,0,0,0,.717.491C-323.711-729.581-320.722-729.593-317.608-729.593Zm-14.247-29.515c.119.073.2.126.286.174,3.509,1.984,7.014,3.976,10.539,5.93a1.169,1.169,0,0,0,.915-.088c.636-.315,1.2-.8,1.852-1.052a.877.877,0,0,0,.668-.989c-.024-3.027-.012-6.054-.012-9.08v-2.893c-3.116,0-6.134-.008-9.151.016a.847.847,0,0,0-.593.376C-328.853-764.211-330.33-761.694-331.855-759.108Zm20.867,47.554,25.035-14.46-.09-.324a3.863,3.863,0,0,0-.68-.121c-5.272-.007-10.545-.014-15.817.016a1.25,1.25,0,0,0-.914.5c-2.637,4.408-5.234,8.841-7.856,13.259C-311.6-712.191-311.593-711.851-310.988-711.554Zm24.907-58.739.1-.344c-.278-.184-.546-.385-.834-.551q-11.739-6.776-23.489-13.532a3.363,3.363,0,0,0-1.014-.209,3.045,3.045,0,0,0,.154,1.1c2.5,4.3,5.052,8.568,7.556,12.865a1.291,1.291,0,0,0,1.3.75c5.109-.028,10.217-.015,15.326-.018C-286.685-770.237-286.383-770.274-286.081-770.294Zm-59.965,43.935-.084.344,25.039,14.455c.7-.345.539-.738.253-1.22q-3.859-6.5-7.678-13.024a1.153,1.153,0,0,0-1.144-.675c-5.175.023-10.35.012-15.525.018A7.075,7.075,0,0,0-346.046-726.358Zm25.277-58.817a3.511,3.511,0,0,0-.385.093q-12.208,7.033-24.408,14.077c-.188.109-.295.36-.44.544a2.354,2.354,0,0,0,.675.217c5.271.013,10.542.019,15.813-.014a1.249,1.249,0,0,0,.9-.528q3.954-6.611,7.828-13.27C-320.638-784.315-320.769-784.738-320.769-785.175Zm-29.613,51.165a5.581,5.581,0,0,0,.377-.477c2.626-4.448,5.258-8.893,7.849-13.362a1.312,1.312,0,0,0-.056-1.1c-2.544-4.384-5.123-8.746-7.7-13.112-.1-.175-.242-.328-.473-.635Zm68.648.095v-28.711a2.942,2.942,0,0,0-.281.316c-2.646,4.481-5.3,8.957-7.906,13.461a1.43,1.43,0,0,0,.1,1.19c2.2,3.8,4.439,7.576,6.669,11.358C-282.728-735.581-282.3-734.862-281.735-733.916Zm-65.576-30.305-.167.154,7.465,12.646,3.832-6.509Zm40.478,37.81h-7.587v12.543l.162.059Zm-10.824-56.405-.186-.048-7.4,12.552h7.583Zm10.828,12.533-7.436-12.6-.163.064v12.54Zm-18.435,43.865,7.438,12.6.163-.065v-12.538Zm-14.752-18.845-7.455,12.633.149.157,11.143-6.29Zm55.254,12.787.129-.185-7.443-12.608-3.833,6.5Zm-7.314-18.958,7.473-12.67-.156-.133-11.149,6.308Zm5.924-15.6h-15.13l3.786,6.411Zm-15.139,37.393h15.171l-11.377-6.432Zm-29.525-37.387H-345.93l11.345,6.4Zm-15.145,37.379H-330.8l-3.784-6.418Zm33.036-18.71a3.135,3.135,0,0,0-3.108-3.11,3.134,3.134,0,0,0-3.135,3.18,3.141,3.141,0,0,0,3.157,3.063A3.144,3.144,0,0,0-312.923-748.361Zm-35.953,20.38a3.134,3.134,0,0,0-3.05-3.168,3.133,3.133,0,0,0-3.194,3.119,3.139,3.139,0,0,0,3.1,3.122A3.145,3.145,0,0,0-348.876-727.981Zm68.815-3.169a3.135,3.135,0,0,0-3.152,3.064,3.138,3.138,0,0,0,3.139,3.178,3.143,3.143,0,0,0,3.1-3.115A3.134,3.134,0,0,0-280.061-731.149Zm-32.862,23.409a3.136,3.136,0,0,0-3.13-3.089,3.137,3.137,0,0,0-3.113,3.2,3.14,3.14,0,0,0,3.179,3.041A3.147,3.147,0,0,0-312.923-707.74Zm-35.954-60.909a3.138,3.138,0,0,0-3.074-3.145,3.135,3.135,0,0,0-3.169,3.148,3.144,3.144,0,0,0,3.122,3.1A3.138,3.138,0,0,0-348.878-768.649ZM-312.925-789a3.136,3.136,0,0,0-3.1-3.119,3.128,3.128,0,0,0-3.142,3.073,3.134,3.134,0,0,0,3.147,3.169A3.134,3.134,0,0,0-312.925-789Zm32.867,23.445a3.134,3.134,0,0,0,3.086-3.133,3.138,3.138,0,0,0-3.208-3.11,3.13,3.13,0,0,0-3.034,3.18A3.134,3.134,0,0,0-280.058-765.552Z" transform="translate(358.25 795.243)" fill="#fff" fill-rule="evenodd"/>
    </g>
  </g>
</svg>
